<svg width="111" height="63" viewBox="0 0 111 63" fill="none" xmlns="http://www.w3.org/2000/svg">
<path fill-rule="evenodd" clip-rule="evenodd" d="M111 0H0V49H22.5L18.3114 61.5658C18.0232 62.4304 18.9473 63.1984 19.7446 62.7569L44.5833 49H111V0Z" fill="#DA5A5A"/>
<path d="M18.4311 31V16.2685H21.1248V22.3926H27.7329V16.2685H30.4267V31H27.7329V24.5813H21.1248V31H18.4311ZM34.6789 18.9413C34.1878 18.9413 33.781 18.7939 33.4583 18.4993C33.1496 18.2047 32.9953 17.8329 32.9953 17.3839C32.9953 16.935 33.1496 16.5702 33.4583 16.2896C33.781 15.995 34.1878 15.8476 34.6789 15.8476C35.1699 15.8476 35.5698 15.995 35.8785 16.2896C36.2011 16.5702 36.3625 16.935 36.3625 17.3839C36.3625 17.8329 36.2011 18.2047 35.8785 18.4993C35.5698 18.7939 35.1699 18.9413 34.6789 18.9413ZM33.332 31V20.5617H36.0258V31H33.332ZM47.3455 31V18.4362H43.0523V16.2685H54.3534V18.4362H50.0392V31H47.3455ZM56.2858 31V15.8476H58.9795V22.1611C59.3303 21.5859 59.8003 21.1369 60.3896 20.8143C60.9928 20.4775 61.6803 20.3092 62.452 20.3092C63.7427 20.3092 64.7388 20.716 65.4403 21.5298C66.1559 22.3435 66.5136 23.5361 66.5136 25.1074V31H63.8409V25.36C63.8409 24.462 63.6585 23.7746 63.2938 23.2976C62.943 22.8205 62.3818 22.582 61.6102 22.582C60.8525 22.582 60.2212 22.8486 59.7161 23.3817C59.2251 23.9149 58.9795 24.6585 58.9795 25.6125V31H56.2858ZM74.1613 31.2525C73.1091 31.2525 72.1761 31.0281 71.3624 30.5791C70.5486 30.1301 69.9103 29.4988 69.4473 28.6851C68.9843 27.8713 68.7528 26.9313 68.7528 25.865C68.7528 24.7847 68.9773 23.8237 69.4262 22.9819C69.8892 22.1401 70.5206 21.4877 71.3203 21.0247C72.134 20.5477 73.088 20.3092 74.1824 20.3092C75.2066 20.3092 76.1115 20.5337 76.8972 20.9826C77.6829 21.4316 78.2932 22.0489 78.7281 22.8346C79.177 23.6062 79.4015 24.4691 79.4015 25.4231C79.4015 25.5774 79.3945 25.7388 79.3805 25.9071C79.3805 26.0755 79.3735 26.2509 79.3594 26.4332H71.4255C71.4816 27.247 71.7622 27.8853 72.2673 28.3483C72.7864 28.8113 73.4107 29.0428 74.1403 29.0428C74.6875 29.0428 75.1434 28.9236 75.5082 28.6851C75.887 28.4325 76.1676 28.1098 76.35 27.717H79.0858C78.8894 28.3764 78.5597 28.9797 78.0967 29.5269C77.6478 30.06 77.0866 30.4809 76.4131 30.7896C75.7537 31.0982 75.0031 31.2525 74.1613 31.2525ZM74.1824 22.4978C73.523 22.4978 72.9407 22.6873 72.4356 23.0661C71.9306 23.4308 71.6079 23.992 71.4676 24.7497H76.6657C76.6236 24.0622 76.371 23.515 75.9081 23.1081C75.4451 22.7013 74.8698 22.4978 74.1824 22.4978ZM81.6671 31V20.5617H84.0663L84.3188 22.5189C84.6976 21.8455 85.2097 21.3123 85.8551 20.9195C86.5145 20.5126 87.2861 20.3092 88.17 20.3092V23.1502H87.4124C86.8231 23.1502 86.297 23.2414 85.834 23.4238C85.371 23.6062 85.0063 23.9219 84.7397 24.3708C84.4872 24.8198 84.3609 25.4441 84.3609 26.2438V31H81.6671ZM94.898 31.2525C93.8457 31.2525 92.9128 31.0281 92.099 30.5791C91.2853 30.1301 90.6469 29.4988 90.1839 28.6851C89.7209 27.8713 89.4894 26.9313 89.4894 25.865C89.4894 24.7847 89.7139 23.8237 90.1629 22.9819C90.6259 22.1401 91.2572 21.4877 92.0569 21.0247C92.8707 20.5477 93.8247 20.3092 94.919 20.3092C95.9432 20.3092 96.8482 20.5337 97.6338 20.9826C98.4195 21.4316 99.0298 22.0489 99.4647 22.8346C99.9137 23.6062 100.138 24.4691 100.138 25.4231C100.138 25.5774 100.131 25.7388 100.117 25.9071C100.117 26.0755 100.11 26.2509 100.096 26.4332H92.1622C92.2183 27.247 92.4989 27.8853 93.004 28.3483C93.5231 28.8113 94.1474 29.0428 94.8769 29.0428C95.4241 29.0428 95.8801 28.9236 96.2449 28.6851C96.6237 28.4325 96.9043 28.1098 97.0867 27.717H99.8225C99.6261 28.3764 99.2964 28.9797 98.8334 29.5269C98.3844 30.06 97.8232 30.4809 97.1498 30.7896C96.4904 31.0982 95.7398 31.2525 94.898 31.2525ZM94.919 22.4978C94.2596 22.4978 93.6774 22.6873 93.1723 23.0661C92.6672 23.4308 92.3445 23.992 92.2042 24.7497H97.4023C97.3603 24.0622 97.1077 23.515 96.6447 23.1081C96.1817 22.7013 95.6065 22.4978 94.919 22.4978Z" fill="#FFF0DA"/>
</svg>
